<svg xmlns="http://www.w3.org/2000/svg" width="16.25" height="20.25" viewBox="0 0 16.25 20.25">
  <g id="delete-black" transform="translate(-1029.476 -95.263)">
    <path id="Path_24" data-name="Path 24" d="M1042.461,261.1l.01,10.975a2.439,2.439,0,0,0,2.437,2.436h8.385a2.439,2.439,0,0,0,2.437-2.435l.01-10.976h.008a1.478,1.478,0,0,0,1.477-1.476v-1.286a1.479,1.479,0,0,0-1.477-1.477h-3.064a3.907,3.907,0,0,0-7.365,0h-2.867a1.479,1.479,0,0,0-1.477,1.477v1.286a1.478,1.478,0,0,0,1.477,1.476Zm11.856,10.975a1.025,1.025,0,0,1-1.024,1.023h-8.385a1.024,1.024,0,0,1-1.024-1.023l-.01-10.975h10.454Zm-5.315-16.4a2.505,2.505,0,0,1,2.129,1.189h-4.257A2.507,2.507,0,0,1,1049,255.676Zm-6.55,2.6,13.36.064v1.286a.064.064,0,0,1-.064.063l-13.36-.063Z" transform="translate(-11.5 -159)" fill="#333"/>
    <path id="Path_25" data-name="Path 25" d="M1049.6,272.976a.75.75,0,0,0,.75-.75v-8.662a.75.75,0,0,0-1.5,0v8.662A.75.75,0,0,0,1049.6,272.976Z" transform="translate(-12.002 -160.25)" fill="#333"/>
    <path id="Path_26" data-name="Path 26" d="M1046.451,272.976a.75.75,0,0,0,.75-.75v-8.662a.75.75,0,0,0-1.5,0v8.662A.75.75,0,0,0,1046.451,272.976Z" transform="translate(-11.801 -160.25)" fill="#333"/>
    <path id="Path_27" data-name="Path 27" d="M1052.754,272.976a.75.75,0,0,0,.75-.75v-8.662a.75.75,0,0,0-1.5,0v8.662A.75.75,0,0,0,1052.754,272.976Z" transform="translate(-12.202 -160.25)" fill="#333"/>
  </g>
</svg>
