<svg id="Delete-b" xmlns="http://www.w3.org/2000/svg" width="16.451" height="20.5" viewBox="0 0 16.451 20.5">
  <path id="Path_24" data-name="Path 24" d="M1042.48,261.187l.01,11.11a2.469,2.469,0,0,0,2.467,2.466h8.489a2.469,2.469,0,0,0,2.467-2.465l.01-11.111h.009a1.5,1.5,0,0,0,1.495-1.494v-1.3a1.5,1.5,0,0,0-1.495-1.5h-3.1a3.956,3.956,0,0,0-7.456,0h-2.9a1.5,1.5,0,0,0-1.5,1.5v1.3a1.5,1.5,0,0,0,1.5,1.494Zm12,11.11a1.038,1.038,0,0,1-1.036,1.035h-8.489a1.037,1.037,0,0,1-1.036-1.035l-.01-11.11h10.583Zm-5.38-16.6a2.536,2.536,0,0,1,2.155,1.2h-4.31A2.537,2.537,0,0,1,1049.1,255.693Zm-6.631,2.634,13.525.065v1.3a.065.065,0,0,1-.065.064l-13.525-.064Z" transform="translate(-1040.976 -254.263)" fill="#35aff8"/>
  <path id="Path_25" data-name="Path 25" d="M1049.6,272.976a.75.75,0,0,0,.75-.75v-8.662a.75.75,0,0,0-1.5,0v8.662A.75.75,0,0,0,1049.6,272.976Z" transform="translate(-1041.377 -255.263)" fill="#35aff8"/>
  <path id="Path_26" data-name="Path 26" d="M1046.451,272.976a.75.75,0,0,0,.75-.75v-8.662a.75.75,0,0,0-1.5,0v8.662A.75.75,0,0,0,1046.451,272.976Z" transform="translate(-1041.217 -255.263)" fill="#35aff8"/>
  <path id="Path_27" data-name="Path 27" d="M1052.754,272.976a.75.75,0,0,0,.75-.75v-8.662a.75.75,0,0,0-1.5,0v8.662A.75.75,0,0,0,1052.754,272.976Z" transform="translate(-1041.538 -255.263)" fill="#35aff8"/>
</svg>
