<svg xmlns="http://www.w3.org/2000/svg" width="13.4" height="17.564" viewBox="0 0 13.4 17.564">
  <g id="Export_Report" data-name="Export Report" transform="translate(7.582 -9.264)">
    <path id="Path_63" data-name="Path 63" d="M321.318,271.827a1.894,1.894,0,0,0,1.862-1.921V259.451a.562.562,0,0,0-.016-.075.61.61,0,0,0-.031-.154.6.6,0,0,0-.079-.125.59.59,0,0,0-.046-.072l-4.409-4.574,0,0a.62.62,0,0,0-.157-.109c-.014-.007-.025-.02-.04-.027s-.03,0-.044-.01a.605.605,0,0,0-.19-.038l-.006,0h-6.517a1.893,1.893,0,0,0-1.862,1.92v13.723a1.894,1.894,0,0,0,1.862,1.921Zm-2.547-15.432,2.354,2.443h-1.719a.668.668,0,0,1-.636-.694Zm-7.766,13.512V256.183a.668.668,0,0,1,.636-.694h5.9v2.655a1.893,1.893,0,0,0,1.861,1.92h2.548v9.843a.669.669,0,0,1-.636.7h-9.676A.668.668,0,0,1,311.005,269.906Z" transform="translate(-317.362 -244.999)" fill="#35aff8"/>
    <path id="Path_64" data-name="Path 64" d="M314.365,266.771h6.23a.756.756,0,0,0,0-1.5h-6.23a.756.756,0,0,0,0,1.5Z" transform="translate(-318.362 -247.166)" fill="#35aff8"/>
    <path id="Path_65" data-name="Path 65" d="M314.365,270.771h6.23a.756.756,0,0,0,0-1.5h-6.23a.756.756,0,0,0,0,1.5Z" transform="translate(-318.362 -247.953)" fill="#35aff8"/>
  </g>
</svg>
