<svg xmlns="http://www.w3.org/2000/svg" width="21.498" height="21.5" viewBox="0 0 21.498 21.5">
  <g id="icon-workflow-red" transform="translate(-901.697 -465.669)">
    <path id="Path_299" data-name="Path 299" d="M117.038,562.314h4.995a1.23,1.23,0,0,0,.133.557l1.178,1.962a.991.991,0,0,0,1.274.474v0l1.087-.43q.206.135.413.243l.138,1.04a1.026,1.026,0,0,0,1.017,1.007h2.4a1,1,0,0,0,1.011-.91l.147-1.13a3.956,3.956,0,0,0,.43-.242l1.005.393a.96.96,0,0,0,.446.109,1,1,0,0,0,.87-.52l1.219-2.035a1.042,1.042,0,0,0-.209-1.274l-.729-.708a2.1,2.1,0,0,0,.026-.3c0-.08,0-.166,0-.259l.87-.666a.935.935,0,0,0,.387-.49,1.158,1.158,0,0,0-.093-.908l-1.179-1.966a.989.989,0,0,0-1.272-.47v0l-1.086.431a4.5,4.5,0,0,0-.411-.243l-.146-1.135a.87.87,0,0,0-.478-.616c-.033-.022-.089-.048-.133-.074v-5.2a3.31,3.31,0,0,0-3.336-3.275h-9.968a3.312,3.312,0,0,0-3.341,3.273v10.1A3.313,3.313,0,0,0,117.038,562.314Zm12.486-6.825.141,1.089a.748.748,0,0,0,.474.6,3.25,3.25,0,0,1,.807.473.753.753,0,0,0,.737.106l1.082-.429.792,1.317-.942.721a.75.75,0,0,0-.252.844,1.217,1.217,0,0,1,.025.333,1.015,1.015,0,0,1-.022.162,2.4,2.4,0,0,0-.045.42.752.752,0,0,0,.227.538l.761.739-.812,1.357-1.084-.428a.75.75,0,0,0-.8.159,2.3,2.3,0,0,1-.743.417.751.751,0,0,0-.474.6l-.146,1.154H127.7l-.149-1.153a.75.75,0,0,0-.474-.6,3.27,3.27,0,0,1-.809-.472.747.747,0,0,0-.734-.1l-1.084.428-.793-1.318.943-.72a.752.752,0,0,0,.251-.846,1.175,1.175,0,0,1-.026-.332.871.871,0,0,1,.023-.159,2.432,2.432,0,0,0,.046-.422.751.751,0,0,0-.294-.6l-.91-.7.823-1.345,1.087.431a.746.746,0,0,0,.654-.05,6.966,6.966,0,0,1,.9-.467.747.747,0,0,0,.465-.571l.2-1.184ZM115.2,548.942a1.811,1.811,0,0,1,1.841-1.773h9.968a1.808,1.808,0,0,1,1.836,1.775v5.045h-1.436a1.028,1.028,0,0,0-1.012.92l-.191,1.117c-.133.066-.263.136-.388.207l-1.074-.424a1.022,1.022,0,0,0-1.305.41l-1.294,2.115a1.027,1.027,0,0,0-.077.8.922.922,0,0,0,.4.495l.881.673a1.9,1.9,0,0,0-.019.249c0,.08,0,.168.005.261l-.04.03a.692.692,0,0,0-.122-.024h-6.13a1.812,1.812,0,0,1-1.841-1.776Z" transform="translate(788 -80)" fill="#e40808"/>
    <path id="Path_300" data-name="Path 300" d="M126.855,560.55a1.752,1.752,0,1,0,3.5,0,1.752,1.752,0,0,0-3.5,0Z" transform="translate(788 -80)" fill="#e40808"/>
    <path id="Path_301" data-name="Path 301" d="M119.262,554.787h3.061a.75.75,0,0,0,0-1.5h-3.061a.75.75,0,1,0,0,1.5Z" transform="translate(788 -80)" fill="#e40808"/>
    <path id="Path_302" data-name="Path 302" d="M119.262,550.787h5.515a.75.75,0,0,0,0-1.5h-5.515a.75.75,0,1,0,0,1.5Z" transform="translate(788 -80)" fill="#e40808"/>
  </g>
</svg>
