<svg id="icon-dxs" xmlns="http://www.w3.org/2000/svg" width="36.34" height="36.324" viewBox="0 0 36.34 36.324">
  <g id="Group_1700" data-name="Group 1700">
    <path id="Path_4245" data-name="Path 4245" d="M145.484,55.67a.543.543,0,0,0,.552-.535V47.84a.557.557,0,0,0-.552-.552H110.248a.557.557,0,0,0-.552.552v7.295a.543.543,0,0,0,.552.535h17.166v2.56H110.248a.557.557,0,0,0-.552.552v7.295a.543.543,0,0,0,.552.535h17.166v2.56H110.248a.546.546,0,0,0-.552.552V77a.561.561,0,0,0,.552.569h17.166V79.3a2.173,2.173,0,0,0-1.573,1.573H110.248a.552.552,0,0,0,0,1.1h15.594a2.179,2.179,0,0,0,2.125,1.64,2.209,2.209,0,0,0,2.125-1.64h15.393a.552.552,0,0,0,0-1.1H130.092A2.251,2.251,0,0,0,128.5,79.3V77.572h16.982a.561.561,0,0,0,.552-.569V69.725a.546.546,0,0,0-.552-.552H128.5v-2.56h16.982a.543.543,0,0,0,.552-.535V58.782a.557.557,0,0,0-.552-.552H128.5V55.67ZM129.054,81.42a1.1,1.1,0,1,1-1.087-1.1A1.1,1.1,0,0,1,129.054,81.42Zm15.878-4.969H110.8V70.277h34.132Zm0-10.926H110.8V59.335h34.132ZM110.8,48.392h34.132v6.191H110.8Z" transform="translate(-109.696 -47.288)" fill="#fff"/>
  </g>
  <g id="Group_1701" data-name="Group 1701" transform="translate(2.761 2.275)">
    <path id="Path_4246" data-name="Path 4246" d="M110.413,47.424a.546.546,0,0,0-.552.552V50.72a.552.552,0,1,0,1.1,0V47.976A.546.546,0,0,0,110.413,47.424Z" transform="translate(-109.861 -47.424)" fill="#fff"/>
  </g>
  <g id="Group_1702" data-name="Group 1702" transform="translate(5.505 2.275)">
    <path id="Path_4247" data-name="Path 4247" d="M110.577,47.424a.546.546,0,0,0-.552.552V50.72a.552.552,0,1,0,1.1,0V47.976A.546.546,0,0,0,110.577,47.424Z" transform="translate(-110.025 -47.424)" fill="#fff"/>
  </g>
  <g id="Group_1703" data-name="Group 1703" transform="translate(8.265 2.275)">
    <path id="Path_4248" data-name="Path 4248" d="M110.742,47.424a.546.546,0,0,0-.552.552V50.72a.552.552,0,1,0,1.1,0V47.976A.546.546,0,0,0,110.742,47.424Z" transform="translate(-110.19 -47.424)" fill="#fff"/>
  </g>
  <g id="Group_1704" data-name="Group 1704" transform="translate(11.009 2.275)">
    <path id="Path_4249" data-name="Path 4249" d="M110.906,47.424a.546.546,0,0,0-.552.552V50.72a.552.552,0,1,0,1.1,0V47.976A.546.546,0,0,0,110.906,47.424Z" transform="translate(-110.354 -47.424)" fill="#fff"/>
  </g>
  <g id="Group_1705" data-name="Group 1705" transform="translate(2.761 13.218)">
    <path id="Path_4250" data-name="Path 4250" d="M110.413,48.078a.543.543,0,0,0-.552.535v2.761a.552.552,0,0,0,1.1,0V48.613A.543.543,0,0,0,110.413,48.078Z" transform="translate(-109.861 -48.078)" fill="#fff"/>
  </g>
  <g id="Group_1706" data-name="Group 1706" transform="translate(5.505 13.218)">
    <path id="Path_4251" data-name="Path 4251" d="M110.577,48.078a.543.543,0,0,0-.552.535v2.761a.552.552,0,0,0,1.1,0V48.613A.543.543,0,0,0,110.577,48.078Z" transform="translate(-110.025 -48.078)" fill="#fff"/>
  </g>
  <g id="Group_1707" data-name="Group 1707" transform="translate(8.265 13.218)">
    <path id="Path_4252" data-name="Path 4252" d="M110.742,48.078a.543.543,0,0,0-.552.535v2.761a.552.552,0,0,0,1.1,0V48.613A.543.543,0,0,0,110.742,48.078Z" transform="translate(-110.19 -48.078)" fill="#fff"/>
  </g>
  <g id="Group_1708" data-name="Group 1708" transform="translate(11.009 13.218)">
    <path id="Path_4253" data-name="Path 4253" d="M110.906,48.078a.543.543,0,0,0-.552.535v2.761a.552.552,0,0,0,1.1,0V48.613A.543.543,0,0,0,110.906,48.078Z" transform="translate(-110.354 -48.078)" fill="#fff"/>
  </g>
  <g id="Group_1709" data-name="Group 1709" transform="translate(2.761 24.143)">
    <path id="Path_4254" data-name="Path 4254" d="M110.413,48.731a.561.561,0,0,0-.552.569v2.744a.552.552,0,1,0,1.1,0V49.3A.561.561,0,0,0,110.413,48.731Z" transform="translate(-109.861 -48.731)" fill="#fff"/>
  </g>
  <g id="Group_1710" data-name="Group 1710" transform="translate(5.505 24.143)">
    <path id="Path_4255" data-name="Path 4255" d="M110.577,48.731a.561.561,0,0,0-.552.569v2.744a.552.552,0,1,0,1.1,0V49.3A.561.561,0,0,0,110.577,48.731Z" transform="translate(-110.025 -48.731)" fill="#fff"/>
  </g>
  <g id="Group_1711" data-name="Group 1711" transform="translate(8.265 24.143)">
    <path id="Path_4256" data-name="Path 4256" d="M110.742,48.731a.561.561,0,0,0-.552.569v2.744a.552.552,0,1,0,1.1,0V49.3A.561.561,0,0,0,110.742,48.731Z" transform="translate(-110.19 -48.731)" fill="#fff"/>
  </g>
  <g id="Group_1712" data-name="Group 1712" transform="translate(11.009 24.143)">
    <path id="Path_4257" data-name="Path 4257" d="M110.906,48.731a.561.561,0,0,0-.552.569v2.744a.552.552,0,1,0,1.1,0V49.3A.561.561,0,0,0,110.906,48.731Z" transform="translate(-110.354 -48.731)" fill="#fff"/>
  </g>
  <g id="Group_1713" data-name="Group 1713" transform="translate(29.732 24.143)">
    <path id="Path_4258" data-name="Path 4258" d="M113.4,52.6a1.933,1.933,0,1,0-1.924-1.924A1.935,1.935,0,0,0,113.4,52.6Zm0-2.761a.828.828,0,1,1,0,1.656.828.828,0,0,1,0-1.656Z" transform="translate(-111.473 -48.731)" fill="#fff"/>
  </g>
  <g id="Group_1714" data-name="Group 1714" transform="translate(29.732 13.218)">
    <path id="Path_4259" data-name="Path 4259" d="M113.4,51.926a1.924,1.924,0,1,0,0-3.848,1.924,1.924,0,0,0,0,3.848Zm0-2.744a.822.822,0,0,1,.837.8.839.839,0,0,1-.837.837.814.814,0,0,1-.82-.837A.8.8,0,0,1,113.4,49.182Z" transform="translate(-111.473 -48.078)" fill="#fff"/>
  </g>
  <g id="Group_1715" data-name="Group 1715" transform="translate(29.732 2.275)">
    <path id="Path_4260" data-name="Path 4260" d="M113.4,51.272a1.924,1.924,0,1,0-1.924-1.924A1.924,1.924,0,0,0,113.4,51.272Zm0-2.761a.85.85,0,0,1,.837.837.836.836,0,0,1-.837.82.811.811,0,0,1-.82-.82A.825.825,0,0,1,113.4,48.512Z" transform="translate(-111.473 -47.424)" fill="#fff"/>
  </g>
  <g id="Group_1716" data-name="Group 1716" transform="translate(23.123 3.647)">
    <path id="Path_4261" data-name="Path 4261" d="M111.63,48.593h3.848a.543.543,0,0,0,.552-.535.557.557,0,0,0-.552-.552H111.63a.557.557,0,0,0-.552.552A.543.543,0,0,0,111.63,48.593Z" transform="translate(-111.078 -47.506)" fill="#fff"/>
  </g>
  <g id="Group_1717" data-name="Group 1717" transform="translate(23.123 14.59)">
    <path id="Path_4262" data-name="Path 4262" d="M111.63,49.264h3.848a.561.561,0,0,0,.552-.569.554.554,0,0,0-.552-.535H111.63a.554.554,0,0,0-.552.535A.561.561,0,0,0,111.63,49.264Z" transform="translate(-111.078 -48.16)" fill="#fff"/>
  </g>
  <g id="Group_1718" data-name="Group 1718" transform="translate(23.123 25.515)">
    <path id="Path_4263" data-name="Path 4263" d="M111.63,49.934h3.848a.568.568,0,0,0,.552-.552.561.561,0,0,0-.552-.569H111.63a.561.561,0,0,0-.552.569A.568.568,0,0,0,111.63,49.934Z" transform="translate(-111.078 -48.813)" fill="#fff"/>
  </g>
</svg>
