<svg xmlns="http://www.w3.org/2000/svg" width="25.191" height="25.191" viewBox="0 0 25.191 25.191">
  <g id="icon-dts" transform="translate(-861 -452.177)">
    <path id="Path_11216" data-name="Path 11216" d="M1308.367,412.368h18.227a3.485,3.485,0,0,0,3.483-3.481V392.611a3.407,3.407,0,0,0-.806-2.217l-1.794-2.17a2.775,2.775,0,0,0-2.184-1.048H1309.67a2.838,2.838,0,0,0-2.19,1.038l-1.783,2.172a3.416,3.416,0,0,0-.811,2.224v16.274A3.487,3.487,0,0,0,1308.367,412.368Zm.47-23.035a1.067,1.067,0,0,1,.833-.4h15.623a1.021,1.021,0,0,1,.819.4l1.342,1.619h-19.947Zm-2.193,3.377h21.676v16.177a1.727,1.727,0,0,1-1.726,1.724h-18.227a1.726,1.726,0,0,1-1.724-1.726Z" transform="translate(-443.886 65)" fill="#034ea2"/>
    <g id="Group_3301" data-name="Group 3301" transform="translate(866.858 459.76)">
      <circle id="Oval" cx="1.87" cy="1.87" r="1.87" stroke-width="1.3" transform="translate(4.986 4.986)" stroke="#034ea2" stroke-linecap="round" stroke-linejoin="round" stroke-miterlimit="10" fill="none"/>
      <path id="Shape" d="M11.468,8.726a1.028,1.028,0,0,0,.206,1.134l.037.037a1.247,1.247,0,1,1-1.764,1.764l-.037-.037a1.037,1.037,0,0,0-1.758.735v.106a1.247,1.247,0,1,1-2.493,0v-.056a1.028,1.028,0,0,0-.673-.941,1.028,1.028,0,0,0-1.134.206l-.037.037A1.247,1.247,0,1,1,2.051,9.947l.037-.037a1.037,1.037,0,0,0-.735-1.758H1.247a1.247,1.247,0,1,1,0-2.493H1.3a1.028,1.028,0,0,0,.941-.673,1.028,1.028,0,0,0-.206-1.134L2,3.814A1.247,1.247,0,1,1,3.765,2.051l.037.037a1.028,1.028,0,0,0,1.134.206h.05a1.028,1.028,0,0,0,.623-.941V1.247a1.247,1.247,0,1,1,2.493,0V1.3a1.037,1.037,0,0,0,1.758.735L9.9,2a1.247,1.247,0,1,1,1.764,1.764l-.037.037a1.028,1.028,0,0,0-.206,1.134v.05a1.028,1.028,0,0,0,.941.623h.106a1.247,1.247,0,1,1,0,2.493h-.056A1.028,1.028,0,0,0,11.468,8.726Z" transform="translate(0 0)" fill="none" stroke="#034ea2" stroke-linecap="round" stroke-linejoin="round" stroke-miterlimit="10" stroke-width="1.3"/>
    </g>
  </g>
</svg>
