<svg xmlns="http://www.w3.org/2000/svg" width="80.024" height="13" viewBox="0 0 80.024 13">
  <g id="tree-arrow-1" transform="translate(4675.452 -2309.506) rotate(180)">
    <path id="Polygon_3" data-name="Polygon 3" d="M3.232.537a.3.3,0,0,1,.537,0L6.783,6.566A.3.3,0,0,1,6.515,7H.485a.3.3,0,0,1-.268-.434Z" transform="translate(4602.427 -2309.506) rotate(-180)" fill="#666"/>
    <path id="Polygon_4" data-name="Polygon 4" d="M3.232.537a.3.3,0,0,1,.537,0L6.783,6.566A.3.3,0,0,1,6.515,7H.485a.3.3,0,0,1-.268-.434Z" transform="translate(4675.452 -2322.506) rotate(90)" fill="#666"/>
    <path id="Path_11594" data-name="Path 11594" d="M5.906,3.523V0H78.264" transform="translate(4593.021 -2319.006)" fill="none" stroke="#666" stroke-width="1"/>
  </g>
</svg>
