<svg xmlns="http://www.w3.org/2000/svg" width="21.5" height="15.139" viewBox="0 0 21.5 15.139">
  <g id="view-b" transform="translate(-1422.699 -15.357)">
    <path id="Path_293" data-name="Path 293" d="M654.949,405.5a11.436,11.436,0,0,0,10.7-7.293.746.746,0,0,0,0-.55,11.491,11.491,0,0,0-21.4,0,.757.757,0,0,0,0,.55A11.442,11.442,0,0,0,654.949,405.5Zm0-13.639a9.942,9.942,0,0,1,9.19,6.071,9.992,9.992,0,0,1-18.379,0A9.944,9.944,0,0,1,654.949,391.857Z" transform="translate(778.5 -375)" fill="#231f20"/>
    <circle id="Ellipse_15" data-name="Ellipse 15" cx="3.5" cy="3.5" r="3.5" transform="translate(1429.949 19.428)" fill="#231f20"/>
  </g>
</svg>
