<svg xmlns="http://www.w3.org/2000/svg" xmlns:xlink="http://www.w3.org/1999/xlink" width="43" height="40" viewBox="0 0 43 40">
  <defs>
    <filter id="Polygon_1" x="0" y="0" width="43" height="40" filterUnits="userSpaceOnUse">
      <feOffset dy="3" input="SourceAlpha"/>
      <feGaussianBlur stdDeviation="3" result="blur"/>
      <feFlood flood-opacity="0.161"/>
      <feComposite operator="in" in2="blur"/>
      <feComposite in="SourceGraphic"/>
    </filter>
  </defs>
  <g id="icon-error" transform="translate(-880 -463.821)">
    <g transform="matrix(1, 0, 0, 1, 880, 463.82)" filter="url(#Polygon_1)">
      <path id="Polygon_1-2" data-name="Polygon 1" d="M10.761,3.06a2,2,0,0,1,3.478,0L23.3,19.012A2,2,0,0,1,21.563,22H3.437A2,2,0,0,1,1.7,19.012Z" transform="translate(9 6)" fill="#ed1d24"/>
    </g>
    <path id="Path_201" data-name="Path 201" d="M787.882,402.216a.936.936,0,1,0,.937.935A.936.936,0,0,0,787.882,402.216Z" transform="translate(113.762 84.733)" fill="#fff"/>
    <path id="Path_202" data-name="Path 202" d="M787.9,395.468a1.006,1.006,0,0,0-1.006,1.006v5.279a1.006,1.006,0,1,0,2.011,0v-5.279A1,1,0,0,0,787.9,395.468Z" transform="translate(113.744 82.433)" fill="#fff"/>
  </g>
</svg>
