<svg xmlns="http://www.w3.org/2000/svg" width="154.564" height="33.933" viewBox="0 0 154.564 33.933">
  <g id="arrow_line" data-name="arrow line" transform="matrix(0.985, 0.174, -0.174, 0.985, -4940.102, 1484.732)">
    <path id="Polygon_3" data-name="Polygon 3" d="M3.232.537a.3.3,0,0,1,.537,0L6.783,6.566A.3.3,0,0,1,6.515,7H.485a.3.3,0,0,1-.268-.434Z" transform="translate(4608.427 -2313.226) rotate(-90)" fill="#005d98"/>
    <path id="Polygon_4" data-name="Polygon 4" d="M3.232.537a.3.3,0,0,1,.537,0L6.783,6.566A.3.3,0,0,1,6.515,7H.485a.3.3,0,0,1-.268-.434Z" transform="translate(4764.141 -2320.226) rotate(90)" fill="#005d98"/>
    <line id="Line_305" data-name="Line 305" x2="143.714" transform="translate(4614.29 -2316.726)" fill="none" stroke="#005d98" stroke-width="1"/>
  </g>
</svg>
