<svg xmlns="http://www.w3.org/2000/svg" width="57.012" height="7.992" viewBox="0 0 57.012 7.992">
  <g id="arrow-s" transform="translate(-4567.232 2401.294) rotate(-1)">
    <path id="Polygon_3" data-name="Polygon 3" d="M3.232.537a.3.3,0,0,1,.537,0L6.783,6.566A.3.3,0,0,1,6.515,7H.485a.3.3,0,0,1-.268-.434Z" transform="translate(4608.427 -2313.226) rotate(-90)" fill="#005d98"/>
    <path id="Polygon_4" data-name="Polygon 4" d="M3.232.537a.3.3,0,0,1,.537,0L6.783,6.566A.3.3,0,0,1,6.515,7H.485a.3.3,0,0,1-.268-.434Z" transform="translate(4665.326 -2320.226) rotate(90)" fill="#005d98"/>
    <line id="Line_305" data-name="Line 305" x2="44.898" transform="translate(4614.29 -2316.726)" fill="none" stroke="#005d98" stroke-width="1"/>
  </g>
</svg>
