<svg xmlns="http://www.w3.org/2000/svg" width="18" height="18" viewBox="0 0 18 18">
  <g id="download" transform="translate(-1517 -571)">
    <circle id="Ellipse_424" data-name="Ellipse 424" cx="9" cy="9" r="9" transform="translate(1517 571)" fill="#35aff8"/>
    <path id="Path_11596" data-name="Path 11596" d="M59.5,470.391a.432.432,0,0,0-.432.432v7.6l-2.718-2.712a.432.432,0,0,0-.611.612l3.456,3.446a.443.443,0,0,0,.119.078c.007,0,.012.01.019.013a.417.417,0,0,0,.335,0c.007,0,.013-.01.02-.013a.44.44,0,0,0,.118-.078l3.456-3.446a.432.432,0,0,0-.611-.612l-2.718,2.712v-7.6A.432.432,0,0,0,59.5,470.391Z" transform="translate(1466.862 103.559)" fill="#fff"/>
    <path id="Path_11597" data-name="Path 11597" d="M54.048,491.255h9.215a.432.432,0,1,0,0-.864H54.048a.432.432,0,1,0,0,.864Z" transform="translate(1467.71 94.078)" fill="#fff"/>
  </g>
</svg>
