<svg xmlns="http://www.w3.org/2000/svg" width="16" height="15.987" viewBox="0 0 16 15.987">
  <path id="edit" d="M508.829,270.259h3.1a.56.56,0,0,0,.4-.163l10.028-10.029,1.514-1.513a1.382,1.382,0,0,0,0-1.955l-1.934-1.934a1.414,1.414,0,0,0-1.955,0l-1.514,1.514,0,.005-10.025,10.024a.562.562,0,0,0-.164.394v3.1A.558.558,0,0,0,508.829,270.259Zm11.937-14.806a.224.224,0,0,1,.377,0l1.934,1.934a.266.266,0,0,1,0,.376l-1.118,1.119-2.311-2.311Zm-11.379,11.379,9.471-9.47,2.31,2.31-9.47,9.47h-2.311Z" transform="translate(-508.271 -254.272)" fill="#fff"/>
</svg>
