<svg xmlns="http://www.w3.org/2000/svg" width="17.5" height="15" viewBox="0 0 17.5 15">
  <g id="Export_Data" data-name="Export Data" transform="translate(-12.165 -8.891)">
    <path id="Path_90" data-name="Path 90" d="M62.366,475.391a.75.75,0,0,0-.75.75v8.2l-4.72-4.709a.751.751,0,0,0-1.06,1.063l6,5.984a.768.768,0,0,0,.206.136c.012.005.021.017.033.022a.725.725,0,0,0,.582,0c.013-.005.022-.017.034-.022a.763.763,0,0,0,.2-.136l6-5.984a.751.751,0,1,0-1.06-1.063l-4.72,4.709v-8.2A.75.75,0,0,0,62.366,475.391Z" transform="translate(-41.451 -466.5)" fill="#35aff8"/>
    <path id="Path_91" data-name="Path 91" d="M54.366,491.891h16a.75.75,0,0,0,0-1.5h-16a.75.75,0,0,0,0,1.5Z" transform="translate(-41.451 -468)" fill="#35aff8"/>
  </g>
</svg>
