<svg xmlns="http://www.w3.org/2000/svg" xmlns:xlink="http://www.w3.org/1999/xlink" width="35.035" height="35.035" viewBox="0 0 35.035 35.035">
  <defs>
    <filter id="Oval" x="0" y="0" width="35.035" height="35.035" filterUnits="userSpaceOnUse">
      <feOffset dy="2" input="SourceAlpha"/>
      <feGaussianBlur stdDeviation="1" result="blur"/>
      <feFlood flood-opacity="0.294"/>
      <feComposite operator="in" in2="blur"/>
      <feComposite in="SourceGraphic"/>
    </filter>
  </defs>
  <g id="Full_Screen" data-name="Full Screen" transform="translate(3 1)">
    <g transform="matrix(1, 0, 0, 1, -3, -1)" filter="url(#Oval)">
      <circle id="Oval-2" data-name="Oval" cx="14.518" cy="14.518" r="14.518" transform="translate(3 1)" fill="#f2f2f2"/>
    </g>
    <g id="Group_5" data-name="Group 5" transform="translate(6.452 6.452)">
      <path id="Stroke_1" data-name="Stroke 1" d="M0,0H16.131V16.131H0Z" fill="none" stroke="rgba(0,0,0,0.01)" stroke-miterlimit="10" stroke-width="0"/>
      <path id="Fill_3" data-name="Fill 3" d="M7.393,9.41H6.049V6.049H9.41V7.393H7.393V9.409Zm-4.032,0H2.017V7.393H0V6.049H3.361v3.36ZM9.41,3.361H6.049V0H7.393V2.017H9.41V3.36Zm-6.049,0H0V2.017H2.017V0H3.361V3.36Z" transform="translate(3.361 3.361)" fill="#616161"/>
    </g>
  </g>
</svg>
