<svg xmlns="http://www.w3.org/2000/svg" width="18.5" height="17.299" viewBox="0 0 18.5 17.299">
  <path id="home" d="M1174.581,554.617l1.312-1.312v7.248a2.417,2.417,0,0,0,2.414,2.414h2.051a.645.645,0,0,0,.645-.645V555.81h3.453v6.512a.645.645,0,0,0,.645.645h2.051a2.417,2.417,0,0,0,2.415-2.414V553.3l1.311,1.312a.645.645,0,0,0,.913-.912l-7.354-7.354a2.477,2.477,0,0,0-3.414,0l-7.354,7.354a.645.645,0,0,0,.913.912Zm2.6-2.6,4.753-4.751a1.153,1.153,0,0,1,1.587,0l4.752,4.751v8.539a1.125,1.125,0,0,1-1.124,1.124h-1.405v-6.512a.646.646,0,0,0-.645-.645h-4.743a.646.646,0,0,0-.646.645v6.512h-1.4a1.125,1.125,0,0,1-1.124-1.124Z" transform="translate(-1173.479 -545.668)" fill="#989898"/>
</svg>
