<svg xmlns="http://www.w3.org/2000/svg" width="32.142" height="29.631" viewBox="0 0 32.142 29.631">
  <path id="icon-db" d="M0,28.63v3.352c0,2.771,6.751,5.024,15.071,5.024s15.071-2.253,15.071-5.024V28.63c-3.242,2.284-9.168,3.352-15.071,3.352S3.242,30.914,0,28.63ZM0,20.4v4.05c0,2.771,6.751,5.024,15.071,5.024s15.071-2.253,15.071-5.024V20.4c-3.242,2.669-9.176,4.05-15.071,4.05S3.242,23.065,0,20.4ZM15.071,9.375C6.751,9.375,0,12.185,0,15.655s6.751,6.28,15.071,6.28,15.071-2.81,15.071-6.28S23.392,9.375,15.071,9.375Z" transform="translate(1 -8.375)" fill="none" stroke="#034ea2" stroke-width="2"/>
</svg>
