<svg xmlns="http://www.w3.org/2000/svg" width="33.343" height="29.71" viewBox="0 0 33.343 29.71">
  <g id="icon-ds" transform="translate(-121.641 -172.254)">
    <path id="Path_9076" data-name="Path 9076" d="M-1063.4,286.065a1.8,1.8,0,0,1-1.792-1.793,1.8,1.8,0,0,1,1.8-1.787,1.818,1.818,0,0,1,1.781,1.776A1.813,1.813,0,0,1-1063.4,286.065Z" transform="translate(1212.773 -87.588)" fill="#ff0" stroke="#034ea2" stroke-width="0.75"/>
    <path id="Path_10090" data-name="Path 10090" d="M-1059.738,276.556c-.023-.286-.026-.438-.049-.587q-.989-6.406-1.98-12.812a3.905,3.905,0,0,0-4.1-3.115q-8.58-.021-17.16,0a3.9,3.9,0,0,0-4.127,3.155c-.51,3.287-1.04,6.573-1.557,9.86-.18,1.142-.347,2.285-.539,3.549a7.636,7.636,0,0,1,3.909-.685q10.884.016,21.767,0A7.813,7.813,0,0,1-1059.738,276.556Z" transform="translate(1212.773 -86.778)" fill="none" stroke="#034ea2" stroke-linecap="round" stroke-linejoin="round" stroke-width="2"/>
    <path id="Path_10091" data-name="Path 10091" d="M-1074.388,280c-3.986,0-7.972-.013-11.958.005a3.538,3.538,0,0,0-3.781,3.748c-.009.467-.008.936.016,1.4a3.473,3.473,0,0,0,3,3.328,9.427,9.427,0,0,0,1.4.066q11.556.006,23.114,0a3.427,3.427,0,0,0,3.663-2.675,8.908,8.908,0,0,0-.01-3.236c-.324-1.686-1.767-2.633-3.684-2.637C-1066.55,279.994-1070.469,280-1074.388,280Z" transform="translate(1212.773 -87.588)" fill="none" stroke="#034ea2" stroke-linecap="round" stroke-linejoin="round" stroke-width="2"/>
    <path id="Path_10093" data-name="Path 10093" d="M-1065.533,284.273a2.1,2.1,0,0,1,2.106-2.124,2.132,2.132,0,0,1,2.157,2.089,2.169,2.169,0,0,1-2.156,2.175A2.134,2.134,0,0,1-1065.533,284.273Z" transform="translate(1212.773 -87.588)" fill="none" stroke="#034ea2" stroke-linecap="round" stroke-linejoin="round" stroke-width="0.75"/>
  </g>
</svg>
