<svg xmlns="http://www.w3.org/2000/svg" xmlns:xlink="http://www.w3.org/1999/xlink" width="50.652" height="50.652" viewBox="0 0 50.652 50.652">
  <defs>
    <linearGradient id="linear-gradient" x1="0.5" x2="0.5" y2="1" gradientUnits="objectBoundingBox">
      <stop offset="0" stop-color="#a4efff"/>
      <stop offset="1" stop-color="#55b4fc"/>
    </linearGradient>
  </defs>
  <path id="Loader" d="M30.075,4.749A4.749,4.749,0,1,1,25.326,0,4.749,4.749,0,0,1,30.075,4.749ZM25.326,41.155A4.749,4.749,0,1,0,30.075,45.9,4.749,4.749,0,0,0,25.326,41.155ZM45.9,20.578a4.749,4.749,0,1,0,4.749,4.749A4.749,4.749,0,0,0,45.9,20.578ZM9.5,25.326a4.749,4.749,0,1,0-4.749,4.749A4.749,4.749,0,0,0,9.5,25.326Zm1.278,9.8a4.749,4.749,0,1,0,4.749,4.749A4.749,4.749,0,0,0,10.776,35.128Zm29.1,0a4.749,4.749,0,1,0,4.749,4.749A4.749,4.749,0,0,0,39.877,35.128Zm-29.1-29.1a4.749,4.749,0,1,0,4.749,4.749,4.749,4.749,0,0,0-4.749-4.749Z" fill="url(#linear-gradient)"/>
</svg>
