<svg id="Refresh" xmlns="http://www.w3.org/2000/svg" width="21.326" height="16.026" viewBox="0 0 21.326 16.026">
  <path id="Path_229" data-name="Path 229" d="M841.676,265.811a.682.682,0,0,0,.954.128l3.3-2.512a.681.681,0,0,0-.826-1.084l-1.992,1.518a6.647,6.647,0,0,1,11.245-4.462.681.681,0,1,0,.943-.982,8.007,8.007,0,0,0-13.54,5.261l-1.519-1.982a.681.681,0,0,0-1.081.828Z" transform="translate(-839.017 -256.183)" fill="#35aff8"/>
  <path id="Path_230" data-name="Path 230" d="M857.224,263.078l-3.3,2.513a.681.681,0,0,0,.826,1.083l1.992-1.518a6.647,6.647,0,0,1-11.245,4.462.681.681,0,0,0-.943.982,8.007,8.007,0,0,0,13.54-5.261l1.519,1.982a.681.681,0,1,0,1.081-.828l-2.518-3.287A.682.682,0,0,0,857.224,263.078Z" transform="translate(-839.51 -256.808)" fill="#35aff8"/>
</svg>
