<svg xmlns="http://www.w3.org/2000/svg" width="18" height="17.999" viewBox="0 0 18 17.999">
  <g id="Run_Report" data-name="Run Report" transform="translate(-30.49 28.303)">
    <path id="Path_199" data-name="Path 199" d="M1048.054,193.333a.819.819,0,0,0-.785-.065.675.675,0,0,0-.416.607v8.141a.674.674,0,0,0,.416.607.817.817,0,0,0,.785-.064l6-4.07a.64.64,0,0,0,0-1.085Zm.3,7.326v-5.427l4,2.714Z" transform="translate(-1010.363 -217.25)" fill="#fff"/>
    <path id="Path_200" data-name="Path 200" d="M1047.853,187.7a9,9,0,1,0,9,9A9.011,9.011,0,0,0,1047.853,187.7Zm0,16.743a7.744,7.744,0,1,1,7.744-7.744A7.752,7.752,0,0,1,1047.853,204.439Z" transform="translate(-1008.362 -215.999)" fill="#fff"/>
  </g>
</svg>
