<svg xmlns="http://www.w3.org/2000/svg" width="18" height="12.462" viewBox="0 0 18 12.462">
  <g id="table-content" transform="translate(-1.225 -13.055)">
    <path id="Path_397" data-name="Path 397" d="M993.337,699.054h-12a.75.75,0,0,0,0,1.5h12a.75.75,0,0,0,0-1.5Z" transform="translate(-974.862 -685.999)" fill="#35aff8"/>
    <path id="Path_398" data-name="Path 398" d="M993.337,705.054h-12a.75.75,0,0,0,0,1.5h12a.75.75,0,0,0,0-1.5Z" transform="translate(-974.862 -686.519)" fill="#35aff8"/>
    <path id="Path_399" data-name="Path 399" d="M993.337,711.054h-12a.75.75,0,0,0,0,1.5h12a.75.75,0,0,0,0-1.5Z" transform="translate(-974.862 -687.038)" fill="#35aff8"/>
    <path id="Path_400" data-name="Path 400" d="M976.337,699.054h-1a.75.75,0,0,0,0,1.5h1a.75.75,0,0,0,0-1.5Z" transform="translate(-973.362 -685.999)" fill="#35aff8"/>
    <path id="Path_401" data-name="Path 401" d="M976.337,705.054h-1a.75.75,0,0,0,0,1.5h1a.75.75,0,0,0,0-1.5Z" transform="translate(-973.362 -686.519)" fill="#35aff8"/>
    <path id="Path_402" data-name="Path 402" d="M976.337,711.054h-1a.75.75,0,0,0,0,1.5h1a.75.75,0,0,0,0-1.5Z" transform="translate(-973.362 -687.038)" fill="#35aff8"/>
  </g>
</svg>
