<svg xmlns="http://www.w3.org/2000/svg" width="34.966" height="7" viewBox="0 0 34.966 7">
  <g id="tree-arrow-2" transform="translate(4643.394 -2313.506) rotate(180)">
    <path id="Polygon_3" data-name="Polygon 3" d="M3.232.537a.3.3,0,0,1,.537,0L6.783,6.566A.3.3,0,0,1,6.515,7H.485a.3.3,0,0,1-.268-.434Z" transform="translate(4608.427 -2313.506) rotate(-90)" fill="#666"/>
    <path id="Polygon_4" data-name="Polygon 4" d="M3.232.537a.3.3,0,0,1,.537,0L6.783,6.566A.3.3,0,0,1,6.515,7H.485a.3.3,0,0,1-.268-.434Z" transform="translate(4643.394 -2320.506) rotate(90)" fill="#666"/>
    <line id="Line_305" data-name="Line 305" x2="27.399" transform="translate(4611.828 -2317.006)" fill="none" stroke="#666" stroke-width="1"/>
  </g>
</svg>
